solid single slide
facet normal -7.600950493643515e-06 1.411755376202628e-06 0.9999999999701163
  outer loop
    vertex 79.9228047005178 55.63628189280509 5.0000612867092205
    vertex 77.3198329453275 84.29767687099675 5.000000000000085
    vertex 75.92757989464849 55.83167111633974 5.000000000000041
  endloop
endfacet
facet normal -7.600950493643515e-06 1.411755376202628e-06 0.9999999999701163
  outer loop
    vertex 77.3198329453275 84.29767687099675 5.000000000000085
    vertex 79.9228047005178 55.63628189280509 5.0000612867092205
    vertex 81.31505749469324 84.10227779181432 5.000000000000092
  endloop
endfacet
facet normal 0.048849769795639805 0.9988061373414329 1.6726375549759091e-15
  outer loop
    vertex 77.66178133389694 91.28931983238675 19.00000000000009
    vertex 85.65223043262839 90.89852167402175 1.084234510395716e-13
    vertex 77.66178133389694 91.28931983238677 9.473741299950552e-14
  endloop
endfacet
facet normal 0.048849769795639805 0.9988061373414329 1.6726375549759091e-15
  outer loop
    vertex 85.65223043262839 90.89852167402175 1.084234510395716e-13
    vertex 77.66178133389694 91.28931983238675 19.00000000000009
    vertex 85.6522304326284 90.89852167402174 19.00000000000009
  endloop
endfacet
facet normal -0.048849769795661274 -0.9988061373414318 -1.898131927693454e-15
  outer loop
    vertex 83.45921907876287 87.00099666424722 2.000000000000096
    vertex 81.46160680408012 87.09869620383861 19.000000000000085
    vertex 81.46160680408012 87.09869620383864 2.000000000000096
  endloop
endfacet
facet normal -0.048849769795661274 -0.9988061373414318 -1.898131927693454e-15
  outer loop
    vertex 81.46160680408012 87.09869620383861 19.000000000000085
    vertex 83.45921907876287 87.00099666424722 2.000000000000096
    vertex 83.45921907876287 87.0009966642472 19.000000000000075
  endloop
endfacet
facet normal -0.0488497697956281 -0.9988061373414334 -1.3693882122156043e-15
  outer loop
    vertex 81.31505749469324 84.10227779181432 5.000000000000092
    vertex 77.3198329453275 84.29767687099672 19.000000000000075
    vertex 77.3198329453275 84.29767687099675 5.000000000000085
  endloop
endfacet
facet normal -0.0488497697956281 -0.9988061373414334 -1.3693882122156043e-15
  outer loop
    vertex 77.3198329453275 84.29767687099672 19.000000000000075
    vertex 81.31505749469324 84.10227779181432 5.000000000000092
    vertex 81.31505749469325 84.10227779181432 19.000000000000085
  endloop
endfacet
facet normal 0.0488497697956281 0.9988061373414334 1.3693882122156043e-15
  outer loop
    vertex 77.99327314859049 16.183460452596865 -2.8767302535571705e-06
    vertex 79.99088542327335 16.085760913005625 2.0000000000000036
    vertex 79.99088542327335 16.085760913005625 -1.1396901578282223e-05
  endloop
endfacet
facet normal 0.0488497697956281 0.9988061373414334 1.3693882122156043e-15
  outer loop
    vertex 79.99088542327335 16.085760913005625 2.0000000000000036
    vertex 77.99327314859049 16.183460452596865 -2.8767302535571705e-06
    vertex 77.9932731485905 16.183460452596865 1.999999999999999
  endloop
endfacet
facet normal -0.0488497697956271 -0.9988061373414334 -9.516153999862832e-16
  outer loop
    vertex 81.49999999999999 6.000000000000027 -2.65929753796604e-15
    vertex 73.50955090126851 6.390798158365048 18.99999999999997
    vertex 73.50955090126853 6.390798158365057 -2.414460630933887e-14
  endloop
endfacet
facet normal -0.0488497697956271 -0.9988061373414334 -9.516153999862832e-16
  outer loop
    vertex 73.50955090126851 6.390798158365048 18.99999999999997
    vertex 81.49999999999999 6.000000000000027 -2.65929753796604e-15
    vertex 81.49999999999996 6.0000000000000115 18.999999999999996
  endloop
endfacet
facet normal 0.0488497697956281 0.9988061373414334 1.3693882122156043e-15
  outer loop
    vertex 77.70017452981669 10.19062362854826 18.999999999999986
    vertex 79.6977868044996 10.092924088956998 1.999999999999996
    vertex 77.70017452981672 10.190623628548265 1.9999999999999905
  endloop
endfacet
facet normal 0.0488497697956281 0.9988061373414334 1.3693882122156043e-15
  outer loop
    vertex 79.6977868044996 10.092924088956998 1.999999999999996
    vertex 77.70017452981669 10.19062362854826 18.999999999999986
    vertex 79.69778680449957 10.092924088956988 18.999999999999996
  endloop
endfacet
facet normal -2.848103122895233e-15 -1.231729546218647e-15 1.0
  outer loop
    vertex 79.6977868044996 10.092924088956998 1.999999999999996
    vertex 77.9932731485905 16.183460452596865 1.999999999999999
    vertex 77.70017452981672 10.190623628548265 1.9999999999999905
  endloop
endfacet
facet normal -2.848103122895233e-15 -1.231729546218647e-15 1.0
  outer loop
    vertex 77.9932731485905 16.183460452596865 1.999999999999999
    vertex 79.6977868044996 10.092924088956998 1.999999999999996
    vertex 79.99088542327335 16.085760913005625 2.0000000000000036
  endloop
endfacet
facet normal -4.715970164456685e-16 -1.3479600857375277e-15 1.0
  outer loop
    vertex 83.16612045998893 81.00815984019873 2.000000000000088
    vertex 81.46160680408012 87.09869620383864 2.000000000000096
    vertex 81.16850818530621 81.10585937979 2.0000000000000875
  endloop
endfacet
facet normal -4.715970164456685e-16 -1.3479600857375277e-15 1.0
  outer loop
    vertex 81.46160680408012 87.09869620383864 2.000000000000096
    vertex 83.16612045998893 81.00815984019873 2.000000000000088
    vertex 83.45921907876287 87.00099666424722 2.000000000000096
  endloop
endfacet
facet normal -0.0488497697956592 -0.9988061373414319 -1.3693882122153388e-15
  outer loop
    vertex 83.16612045998893 81.00815984019873 2.000000000000088
    vertex 81.16850818530621 81.10585937979 2.8723201691808418e-06
    vertex 83.16612045998892 81.00815984019872 -5.647851155543594e-06
  endloop
endfacet
facet normal -0.0488497697956592 -0.9988061373414319 -1.3693882122153388e-15
  outer loop
    vertex 81.16850818530621 81.10585937979 2.8723201691808418e-06
    vertex 83.16612045998893 81.00815984019873 2.000000000000088
    vertex 81.16850818530621 81.10585937979 2.0000000000000875
  endloop
endfacet
facet normal 0.0488497697956281 0.9988061373414334 1.3693882122156043e-15
  outer loop
    vertex 73.85149928983789 13.38244111975505 18.999999999999975
    vertex 77.84672383920363 13.187042040572546 4.999999999999995
    vertex 73.8514992898379 13.382441119755057 4.999999999999983
  endloop
endfacet
facet normal 0.0488497697956281 0.9988061373414334 1.3693882122156043e-15
  outer loop
    vertex 77.84672383920363 13.187042040572546 4.999999999999995
    vertex 73.85149928983789 13.38244111975505 18.999999999999975
    vertex 77.8467238392036 13.187042040572559 18.99999999999999
  endloop
endfacet
facet normal 0.0488497697956281 0.9988061373414334 -5.105894428163347e-16
  outer loop
    vertex 79.8443361138865 13.0893425009813 18.99999999999999
    vertex 81.8419483885694 12.991642961390033 5.0000000000000115
    vertex 79.84433611388651 13.089342500981289 5.000000000000009
  endloop
endfacet
facet normal 0.0488497697956281 0.9988061373414334 -5.105894428163347e-16
  outer loop
    vertex 81.8419483885694 12.991642961390033 5.0000000000000115
    vertex 79.8443361138865 13.0893425009813 18.99999999999999
    vertex 81.84194838856939 12.991642961390031 18.99999999999999
  endloop
endfacet
facet normal -0.04884976979562528 -0.9988061373414335 -2.7206221517698067e-15
  outer loop
    vertex 85.310282044059 83.90687871263178 5.0000000000001075
    vertex 83.31266976937599 84.00457825222306 19.00000000000007
    vertex 83.31266976937597 84.00457825222308 5.000000000000101
  endloop
endfacet
facet normal -0.04884976979562528 -0.9988061373414335 -2.7206221517698067e-15
  outer loop
    vertex 83.31266976937599 84.00457825222306 19.00000000000007
    vertex 85.310282044059 83.90687871263178 5.0000000000001075
    vertex 85.31028204405901 83.90687871263175 19.00000000000007
  endloop
endfacet
facet normal -2.0105316588535978e-15 7.402412016688192e-16 1.0
  outer loop
    vertex 81.49999999999996 6.0000000000000115 18.999999999999996
    vertex 73.85149928983789 13.38244111975505 18.999999999999975
    vertex 73.50955090126851 6.390798158365048 18.99999999999997
  endloop
endfacet
facet normal -2.0105316588535978e-15 7.402412016688192e-16 1.0
  outer loop
    vertex 73.85149928983789 13.38244111975505 18.999999999999975
    vertex 81.49999999999996 6.0000000000000115 18.999999999999996
    vertex 77.70017452981669 10.19062362854826 18.999999999999986
  endloop
endfacet
facet normal -2.0105316588535978e-15 7.402412016688192e-16 1.0
  outer loop
    vertex 77.70017452981669 10.19062362854826 18.999999999999986
    vertex 81.49999999999996 6.0000000000000115 18.999999999999996
    vertex 79.69778680449957 10.092924088956988 18.999999999999996
  endloop
endfacet
facet normal -2.0105316588535978e-15 7.402412016688192e-16 1.0
  outer loop
    vertex 79.69778680449957 10.092924088956988 18.999999999999996
    vertex 81.49999999999996 6.0000000000000115 18.999999999999996
    vertex 79.8443361138865 13.0893425009813 18.99999999999999
  endloop
endfacet
facet normal -2.0105316588535978e-15 7.402412016688192e-16 1.0
  outer loop
    vertex 79.8443361138865 13.0893425009813 18.99999999999999
    vertex 81.49999999999996 6.0000000000000115 18.999999999999996
    vertex 81.84194838856939 12.991642961390031 18.99999999999999
  endloop
endfacet
facet normal -2.0105316588535978e-15 7.402412016688192e-16 1.0
  outer loop
    vertex 77.8467238392036 13.187042040572559 18.99999999999999
    vertex 73.85149928983789 13.38244111975505 18.999999999999975
    vertex 77.70017452981669 10.19062362854826 18.999999999999986
  endloop
endfacet
facet normal 1.0890212382727321e-15 -2.992807696220566e-15 1.0
  outer loop
    vertex 85.31028204405901 83.90687871263175 19.00000000000007
    vertex 83.45921907876287 87.0009966642472 19.000000000000075
    vertex 83.31266976937599 84.00457825222306 19.00000000000007
  endloop
endfacet
facet normal 1.0890212382727321e-15 -2.992807696220566e-15 1.0
  outer loop
    vertex 81.31505749469325 84.10227779181432 19.000000000000085
    vertex 77.66178133389694 91.28931983238675 19.00000000000009
    vertex 77.3198329453275 84.29767687099672 19.000000000000075
  endloop
endfacet
facet normal 1.0890212382727321e-15 -2.992807696220566e-15 1.0
  outer loop
    vertex 77.66178133389694 91.28931983238675 19.00000000000009
    vertex 81.31505749469325 84.10227779181432 19.000000000000085
    vertex 81.46160680408012 87.09869620383861 19.000000000000085
  endloop
endfacet
facet normal 1.0890212382727321e-15 -2.992807696220566e-15 1.0
  outer loop
    vertex 77.66178133389694 91.28931983238675 19.00000000000009
    vertex 81.46160680408012 87.09869620383861 19.000000000000085
    vertex 85.6522304326284 90.89852167402174 19.00000000000009
  endloop
endfacet
facet normal 1.0890212382727321e-15 -2.992807696220566e-15 1.0
  outer loop
    vertex 85.6522304326284 90.89852167402174 19.00000000000009
    vertex 81.46160680408012 87.09869620383861 19.000000000000085
    vertex 83.45921907876287 87.0009966642472 19.000000000000075
  endloop
endfacet
facet normal 1.0890212382727321e-15 -2.992807696220566e-15 1.0
  outer loop
    vertex 85.6522304326284 90.89852167402174 19.00000000000009
    vertex 83.45921907876287 87.0009966642472 19.000000000000075
    vertex 85.31028204405901 83.90687871263175 19.00000000000007
  endloop
endfacet
facet normal 0.9988061388461753 -0.04884973902870417 -1.4959634333804832e-07
  outer loop
    vertex 77.9932731485905 16.183460452596865 1.999999999999999
    vertex 77.84672383920363 13.187042040572546 4.999999999999995
    vertex 77.70017452981672 10.190623628548265 1.9999999999999905
  endloop
endfacet
facet normal 0.9988061388461753 -0.04884973902870417 -1.4959634333804832e-07
  outer loop
    vertex 77.84672383920363 13.187042040572546 4.999999999999995
    vertex 77.9932731485905 16.183460452596865 1.999999999999999
    vertex 79.23894060401229 41.653007499156864 5.000061286695785
  endloop
endfacet
facet normal 0.9988061388461753 -0.04884973902870417 -1.4959634333804832e-07
  outer loop
    vertex 77.70017452981672 10.190623628548265 1.9999999999999905
    vertex 77.8467238392036 13.187042040572559 18.99999999999999
    vertex 77.70017452981669 10.19062362854826 18.999999999999986
  endloop
endfacet
facet normal 0.9988061388461753 -0.04884973902870417 -1.4959634333804832e-07
  outer loop
    vertex 77.8467238392036 13.187042040572559 18.99999999999999
    vertex 77.70017452981672 10.190623628548265 1.9999999999999905
    vertex 77.84672383920363 13.187042040572546 4.999999999999995
  endloop
endfacet
facet normal 0.9988061388461753 -0.04884973902870417 -1.4959634333804832e-07
  outer loop
    vertex 81.16850818530621 81.10585937979 2.8723201691808418e-06
    vertex 77.9932731485905 16.183460452596865 1.999999999999999
    vertex 77.99327314859049 16.183460452596865 -2.8767302535571705e-06
  endloop
endfacet
facet normal 0.9988061388461753 -0.04884973902870417 -1.4959634333804832e-07
  outer loop
    vertex 77.9932731485905 16.183460452596865 1.999999999999999
    vertex 81.16850818530621 81.10585937979 2.8723201691808418e-06
    vertex 79.23894060401229 41.653007499156864 5.000061286695785
  endloop
endfacet
facet normal 0.9988061388461753 -0.04884973902870417 -1.4959634333804832e-07
  outer loop
    vertex 79.23894060401229 41.653007499156864 5.000061286695785
    vertex 81.16850818530621 81.10585937979 2.8723201691808418e-06
    vertex 79.9228047005178 55.63628189280509 5.0000612867092205
  endloop
endfacet
facet normal 0.9988061388461753 -0.04884973902870417 -1.4959634333804832e-07
  outer loop
    vertex 79.9228047005178 55.63628189280509 5.0000612867092205
    vertex 81.16850818530621 81.10585937979 2.8723201691808418e-06
    vertex 81.16850818530621 81.10585937979 2.0000000000000875
  endloop
endfacet
facet normal 0.9988061388461753 -0.04884973902870417 -1.4959634333804832e-07
  outer loop
    vertex 79.9228047005178 55.63628189280509 5.0000612867092205
    vertex 81.16850818530621 81.10585937979 2.0000000000000875
    vertex 81.31505749469324 84.10227779181432 5.000000000000092
  endloop
endfacet
facet normal 0.9988061388461753 -0.04884973902870417 -1.4959634333804832e-07
  outer loop
    vertex 81.31505749469324 84.10227779181432 5.000000000000092
    vertex 81.16850818530621 81.10585937979 2.0000000000000875
    vertex 81.46160680408012 87.09869620383864 2.000000000000096
  endloop
endfacet
facet normal 0.9988061388461753 -0.04884973902870417 -1.4959634333804832e-07
  outer loop
    vertex 81.31505749469324 84.10227779181432 5.000000000000092
    vertex 81.46160680408012 87.09869620383864 2.000000000000096
    vertex 81.31505749469325 84.10227779181432 19.000000000000085
  endloop
endfacet
facet normal 0.9988061388461753 -0.04884973902870417 -1.4959634333804832e-07
  outer loop
    vertex 81.31505749469325 84.10227779181432 19.000000000000085
    vertex 81.46160680408012 87.09869620383864 2.000000000000096
    vertex 81.46160680408012 87.09869620383861 19.000000000000085
  endloop
endfacet
facet normal 0.9988061388461753 -0.04884973902870417 -1.4959634333804832e-07
  outer loop
    vertex 79.23894060401229 41.653007499156864 5.000061286695785
    vertex 79.92277167620327 55.63628350804201 7.000159190620337
    vertex 79.23891203450682 41.65300113396072 7.000071927403592
  endloop
endfacet
facet normal 0.9988061388461753 -0.04884973902870417 -1.4959634333804832e-07
  outer loop
    vertex 79.92277167620327 55.63628350804201 7.000159190620337
    vertex 79.23894060401229 41.653007499156864 5.000061286695785
    vertex 79.9228047005178 55.63628189280509 5.0000612867092205
  endloop
endfacet
facet normal -0.9988061373414335 0.04884976979562595 7.057975784028014e-16
  outer loop
    vertex 79.8443361138865 13.0893425009813 18.99999999999999
    vertex 79.6977868044996 10.092924088956998 1.999999999999996
    vertex 79.69778680449957 10.092924088956988 18.999999999999996
  endloop
endfacet
facet normal -0.9988061373414335 0.04884976979562595 7.057975784028014e-16
  outer loop
    vertex 79.6977868044996 10.092924088956998 1.999999999999996
    vertex 79.8443361138865 13.0893425009813 18.99999999999999
    vertex 79.84433611388651 13.089342500981289 5.000000000000009
  endloop
endfacet
facet normal -0.9988061373414335 0.04884976979562595 7.057975784028014e-16
  outer loop
    vertex 83.45921907876287 87.0009966642472 19.000000000000075
    vertex 83.31266976937597 84.00457825222308 5.000000000000101
    vertex 83.31266976937599 84.00457825222306 19.00000000000007
  endloop
endfacet
facet normal -0.9988061373414335 0.04884976979562595 7.057975784028014e-16
  outer loop
    vertex 79.84433611388651 13.089342500981289 5.000000000000009
    vertex 79.99088542327335 16.085760913005625 2.0000000000000036
    vertex 79.6977868044996 10.092924088956998 1.999999999999996
  endloop
endfacet
facet normal -0.9988061373414335 0.04884976979562595 7.057975784028014e-16
  outer loop
    vertex 79.99088542327335 16.085760913005625 2.0000000000000036
    vertex 79.84433611388651 13.089342500981289 5.000000000000009
    vertex 83.31266976937597 84.00457825222308 5.000000000000101
  endloop
endfacet
facet normal -0.9988061373414335 0.04884976979562595 7.057975784028014e-16
  outer loop
    vertex 79.99088542327335 16.085760913005625 2.0000000000000036
    vertex 83.31266976937597 84.00457825222308 5.000000000000101
    vertex 79.99088542327335 16.085760913005625 -1.1396901578282223e-05
  endloop
endfacet
facet normal -0.9988061373414335 0.04884976979562595 7.057975784028014e-16
  outer loop
    vertex 79.99088542327335 16.085760913005625 -1.1396901578282223e-05
    vertex 83.31266976937597 84.00457825222308 5.000000000000101
    vertex 83.16612045998893 81.00815984019873 2.000000000000088
  endloop
endfacet
facet normal -0.9988061373414335 0.04884976979562595 7.057975784028014e-16
  outer loop
    vertex 79.99088542327335 16.085760913005625 -1.1396901578282223e-05
    vertex 83.16612045998893 81.00815984019873 2.000000000000088
    vertex 83.16612045998892 81.00815984019872 -5.647851155543594e-06
  endloop
endfacet
facet normal -0.9988061373414335 0.04884976979562595 7.057975784028014e-16
  outer loop
    vertex 83.16612045998893 81.00815984019873 2.000000000000088
    vertex 83.31266976937597 84.00457825222308 5.000000000000101
    vertex 83.45921907876287 87.00099666424722 2.000000000000096
  endloop
endfacet
facet normal -0.9988061373414335 0.04884976979562595 7.057975784028014e-16
  outer loop
    vertex 83.45921907876287 87.00099666424722 2.000000000000096
    vertex 83.31266976937597 84.00457825222308 5.000000000000101
    vertex 83.45921907876287 87.0009966642472 19.000000000000075
  endloop
endfacet
facet normal 0.9988061373414334 -0.04884976979562843 1.4841052593448562e-15
  outer loop
    vertex 81.49999999999999 6.000000000000027 -2.65929753796604e-15
    vertex 81.84194838856939 12.991642961390031 18.99999999999999
    vertex 81.49999999999996 6.0000000000000115 18.999999999999996
  endloop
endfacet
facet normal 0.9988061373414334 -0.04884976979562843 1.4841052593448562e-15
  outer loop
    vertex 81.84194838856939 12.991642961390031 18.99999999999999
    vertex 81.49999999999999 6.000000000000027 -2.65929753796604e-15
    vertex 81.8419483885694 12.991642961390033 5.0000000000000115
  endloop
endfacet
facet normal 0.9988061373414334 -0.04884976979562843 1.4841052593448562e-15
  outer loop
    vertex 81.8419483885694 12.991642961390033 5.0000000000000115
    vertex 81.49999999999999 6.000000000000027 -2.65929753796604e-15
    vertex 85.65223043262839 90.89852167402175 1.084234510395716e-13
  endloop
endfacet
facet normal 0.9988061373414334 -0.04884976979562843 1.4841052593448562e-15
  outer loop
    vertex 81.8419483885694 12.991642961390033 5.0000000000000115
    vertex 85.65223043262839 90.89852167402175 1.084234510395716e-13
    vertex 85.310282044059 83.90687871263178 5.0000000000001075
  endloop
endfacet
facet normal 0.9988061373414334 -0.04884976979562843 1.4841052593448562e-15
  outer loop
    vertex 85.310282044059 83.90687871263178 5.0000000000001075
    vertex 85.65223043262839 90.89852167402175 1.084234510395716e-13
    vertex 85.6522304326284 90.89852167402174 19.00000000000009
  endloop
endfacet
facet normal 0.9988061373414334 -0.04884976979562843 1.4841052593448562e-15
  outer loop
    vertex 85.6522304326284 90.89852167402174 19.00000000000009
    vertex 85.31028204405901 83.90687871263175 19.00000000000007
    vertex 85.310282044059 83.90687871263178 5.0000000000001075
  endloop
endfacet
facet normal -2.1420661145588595e-15 -1.227584665281374e-15 1.0
  outer loop
    vertex 81.8419483885694 12.991642961390033 5.0000000000000115
    vertex 83.31266976937597 84.00457825222308 5.000000000000101
    vertex 79.84433611388651 13.089342500981289 5.000000000000009
  endloop
endfacet
facet normal -2.1420661145588595e-15 -1.227584665281374e-15 1.0
  outer loop
    vertex 83.31266976937597 84.00457825222308 5.000000000000101
    vertex 81.8419483885694 12.991642961390033 5.0000000000000115
    vertex 85.310282044059 83.90687871263178 5.0000000000001075
  endloop
endfacet
facet normal -7.702434484558795e-06 -6.632880200023608e-07 0.9999999999701163
  outer loop
    vertex 77.84672383920363 13.187042040572546 4.999999999999995
    vertex 75.24371579814293 41.84839672269155 4.999999999986606
    vertex 73.8514992898379 13.382441119755057 4.999999999999983
  endloop
endfacet
facet normal -7.702434484558795e-06 -6.632880200023608e-07 0.9999999999701163
  outer loop
    vertex 75.24371579814293 41.84839672269155 4.999999999986606
    vertex 77.84672383920363 13.187042040572546 4.999999999999995
    vertex 79.23894060401229 41.653007499156864 5.000061286695785
  endloop
endfacet
facet normal -0.9988060968306184 0.04885059808841974 -6.237943183077605e-07
  outer loop
    vertex 73.85149928983789 13.38244111975505 18.999999999999975
    vertex 73.50955090126853 6.390798158365057 -2.414460630933887e-14
    vertex 73.50955090126851 6.390798158365048 18.99999999999997
  endloop
endfacet
facet normal -0.9988060968306184 0.04885059808841974 -6.237943183077605e-07
  outer loop
    vertex 73.50955090126853 6.390798158365057 -2.414460630933887e-14
    vertex 73.85149928983789 13.38244111975505 18.999999999999975
    vertex 73.8514992898379 13.382441119755057 4.999999999999983
  endloop
endfacet
facet normal -0.9988060968306184 0.04885059808841974 -6.237943183077605e-07
  outer loop
    vertex 73.50955090126853 6.390798158365057 -2.414460630933887e-14
    vertex 73.8514992898379 13.382441119755057 4.999999999999983
    vertex 75.24378377726445 41.848412804008355 1.0640724970108066e-05
  endloop
endfacet
facet normal -0.9988060968306184 0.04885059808841974 -6.237943183077605e-07
  outer loop
    vertex 75.24378377726445 41.848412804008355 1.0640724970108066e-05
    vertex 73.8514992898379 13.382441119755057 4.999999999999983
    vertex 75.24371579814293 41.84839672269155 4.999999999986606
  endloop
endfacet
facet normal 0.04884762474492744 0.998806242247848 1.874047754303139e-06
  outer loop
    vertex 67.93297219327027 56.222673878330085 0.00012569464138297162
    vertex 75.92757989464849 55.83167111633974 5.000000000000041
    vertex 75.92754687087111 55.83167273127572 -1.0640675497937294e-05
  endloop
endfacet
facet normal 0.04884762474492744 0.998806242247848 1.874047754303139e-06
  outer loop
    vertex 75.92757989464849 55.83167111633974 5.000000000000041
    vertex 67.93297219327027 56.222673878330085 0.00012569464138297162
    vertex 67.93709646162891 56.22244410497495 7.00009790394165
  endloop
endfacet
facet normal 0.04884762474492744 0.998806242247848 1.874047754303139e-06
  outer loop
    vertex 75.92757989464849 55.83167111633974 5.000000000000041
    vertex 67.93709646162891 56.22244410497495 7.00009790394165
    vertex 79.9228047005178 55.63628189280509 5.0000612867092205
  endloop
endfacet
facet normal 0.04884762474492744 0.998806242247848 1.874047754303139e-06
  outer loop
    vertex 79.9228047005178 55.63628189280509 5.0000612867092205
    vertex 67.93709646162891 56.22244410497495 7.00009790394165
    vertex 79.92277167620327 55.63628350804201 7.000159190620337
  endloop
endfacet
facet normal 0.6654475305377953 0.5427475143239413 0.5124497241645595
  outer loop
    vertex 71.05132865113026 46.38327997423605 6.266701119272637
    vertex 70.20746975956344 46.72549906750792 7.000053421244125
    vertex 70.74127872228136 46.07103993706104 7.000052395635256
  endloop
endfacet
facet normal 0.6654475305377953 0.5427475143239413 0.5124497241645595
  outer loop
    vertex 70.20746975956344 46.72549906750792 7.000053421244125
    vertex 71.05132865113026 46.38327997423605 6.266701119272637
    vertex 70.57566024129584 46.9665114394111 6.266705154724174
  endloop
endfacet
facet normal 0.763771960383244 0.39252163022033315 0.5124247870092826
  outer loop
    vertex 70.57566024129584 46.9665114394111 6.266705154724174
    vertex 69.82141576463904 47.476755866405625 7.000055824036012
    vertex 70.20746975956344 46.72549906750792 7.000053421244125
  endloop
endfacet
facet normal 0.763771960383244 0.39252163022033315 0.5124247870092826
  outer loop
    vertex 69.82141576463904 47.476755866405625 7.000055824036012
    vertex 70.57566024129584 46.9665114394111 6.266705154724174
    vertex 70.23164339106364 47.63581479868629 6.266709691651343
  endloop
endfacet
facet normal 0.8573949607501585 0.0479301425908609 0.5124222699214526
  outer loop
    vertex 70.03431608981045 48.362120781781975 6.266711576464004
    vertex 69.55281866577339 49.13505946355104 7.000064282422919
    vertex 69.59996158585675 48.29174814323722 7.000059497481853
  endloop
endfacet
facet normal 0.8573949607501585 0.0479301425908609 0.5124222699214526
  outer loop
    vertex 69.55281866577339 49.13505946355104 7.000064282422919
    vertex 70.03431608981045 48.362120781781975 6.266711576464004
    vertex 69.99230238437686 49.1135700930672 6.266716638746589
  endloop
endfacet
facet normal 0.609335832883754 -0.6050935158777231 0.5124174858517201
  outer loop
    vertex 71.31269326337541 51.7275126528367 6.266730158322661
    vertex 70.43946259757378 51.469192699159045 7.000083024448751
    vertex 70.78238448632901 51.19348943874906 6.266728122928039
  endloop
endfacet
facet normal 0.609335832883754 -0.6050935158777231 0.5124174858517201
  outer loop
    vertex 70.43946259757378 51.469192699159045 7.000083024448751
    vertex 71.31269326337541 51.7275126528367 6.266730158322661
    vertex 71.03458813062038 52.06850113231487 7.000089823027327
  endloop
endfacet
facet normal -0.9988060293051941 0.04884838420932404 0.0005926075684517476
  outer loop
    vertex 67.93709646162891 56.22244410497495 7.00009790394165
    vertex 67.24907802753474 42.23940932012947 1.0646153222560739e-05
    vertex 67.25323681993265 42.23916173089373 7.00001064072495
  endloop
endfacet
facet normal -0.9988060293051941 0.04884838420932404 0.0005926075684517476
  outer loop
    vertex 67.24907802753474 42.23940932012947 1.0646153222560739e-05
    vertex 67.93709646162891 56.22244410497495 7.00009790394165
    vertex 67.93297219327027 56.222673878330085 0.00012569464138297162
  endloop
endfacet
facet normal -0.6093114438112441 0.6050907738851612 0.5124497241678583
  outer loop
    vertex 76.73655813609976 46.40617620638359 7.000086806506488
    vertex 75.86331745717132 46.147945237884834 6.266701119260312
    vertex 76.14143034890643 45.80692822963617 7.000080008277021
  endloop
endfacet
facet normal -0.6093114438112441 0.6050907738851612 0.5124497241678583
  outer loop
    vertex 75.86331745717132 46.147945237884834 6.266701119260312
    vertex 76.73655813609976 46.40617620638359 7.000086806506488
    vertex 76.39362672269289 46.68197844002385 6.266705154709336
  endloop
endfacet
facet normal 0.7218302801020574 -0.46519282063583556 0.5124028555313296
  outer loop
    vertex 70.78238448632901 51.19348943874906 6.266728122928039
    vertex 69.98194725418499 50.75924079135985 7.000076308509966
    vertex 70.37469829001384 50.5609187721603 6.266725585839677
  endloop
endfacet
facet normal 0.7218302801020574 -0.46519282063583556 0.5124028555313296
  outer loop
    vertex 69.98194725418499 50.75924079135985 7.000076308509966
    vertex 70.78238448632901 51.19348943874906 6.266728122928039
    vertex 70.43946259757378 51.469192699159045 7.000083024448751
  endloop
endfacet
facet normal 0.04194673555274947 0.8577026284038717 0.5124321151192205
  outer loop
    vertex 73.03726224554057 45.380074427970804 6.266696207623554
    vertex 73.81353218482424 44.903962807233036 7.000062028328051
    vertex 73.78896882069206 45.34331152684876 6.266696207621607
  endloop
endfacet
facet normal 0.04194673555274947 0.8577026284038717 0.5124321151192205
  outer loop
    vertex 73.81353218482424 44.903962807233036 7.000062028328051
    vertex 73.03726224554057 45.380074427970804 6.266696207623554
    vertex 72.96994652883495 44.94522171636649 7.000057714818153
  endloop
endfacet
facet normal 0.1372994396705325 -0.8476899488544815 0.5124164463375901
  outer loop
    vertex 73.3870389471472 52.53210646047045 6.26673506974425
    vertex 72.5287453900585 52.83639951702229 7.0001024889283014
    vertex 72.64411707443641 52.411772715841316 6.26673422049309
  endloop
endfacet
facet normal 0.1372994396705325 -0.8476899488544815 0.5124164463375901
  outer loop
    vertex 72.5287453900585 52.83639951702229 7.0001024889283014
    vertex 73.3870389471472 52.53210646047045 6.26673506974425
    vertex 73.36247563211113 52.97143848718665 7.0001078027509225
  endloop
endfacet
facet normal -0.470212907874058 0.7185645897988431 0.5124107254496563
  outer loop
    vertex 75.43470214646737 45.344496717713696 7.000073424420388
    vertex 75.86331745717132 46.147945237884834 6.266701119260312
    vertex 75.23356414717651 45.735815154725685 6.266698718255073
  endloop
endfacet
facet normal -0.470212907874058 0.7185645897988431 0.5124107254496563
  outer loop
    vertex 75.86331745717132 46.147945237884834 6.266701119260312
    vertex 75.43470214646737 45.344496717713696 7.000073424420388
    vertex 76.14143034890643 45.80692822963617 7.000080008277021
  endloop
endfacet
facet normal 0.8027671800729411 -0.30495432916717524 0.5124136139096389
  outer loop
    vertex 70.37469829001384 50.5609187721603 6.266725585839677
    vertex 69.68202483959826 49.9697464384243 7.000069969094739
    vertex 70.10744085376875 49.85733373277915 6.2667197010286175
  endloop
endfacet
facet normal 0.8027671800729411 -0.30495432916717524 0.5124136139096389
  outer loop
    vertex 69.68202483959826 49.9697464384243 7.000069969094739
    vertex 70.37469829001384 50.5609187721603 6.266725585839677
    vertex 69.98194725418499 50.75924079135985 7.000076308509966
  endloop
endfacet
facet normal -0.3871838206931859 -0.7664974083737262 0.5124162487175716
  outer loop
    vertex 75.77651386480453 52.33363073906419 7.000117040407072
    vertex 74.86638106841251 52.303090852228266 6.266734220487479
    vertex 75.53814759536539 51.96376163603422 6.266732559156115
  endloop
endfacet
facet normal -0.3871838206931859 -0.7664974083737262 0.5124162487175716
  outer loop
    vertex 74.86638106841251 52.303090852228266 6.266734220487479
    vertex 75.77651386480453 52.33363073906419 7.000117040407072
    vertex 75.02263932301412 52.71444062701439 7.0001152410551635
  endloop
endfacet
facet normal -0.21936049688071974 -0.8302471667701955 0.5124164463386273
  outer loop
    vertex 75.02263932301412 52.71444062701439 7.0001152410551635
    vertex 74.13874652110493 52.495343510500874 6.266735069742244
    vertex 74.86638106841251 52.303090852228266 6.266734220487479
  endloop
endfacet
facet normal -0.21936049688071974 -0.8302471667701955 0.5124164463386273
  outer loop
    vertex 74.13874652110493 52.495343510500874 6.266735069742244
    vertex 75.02263932301412 52.71444062701439 7.0001152410551635
    vertex 74.20606235081756 52.93018468017153 7.000112116297055
  endloop
endfacet
facet normal -0.8573952324406313 -0.047935698014010715 0.512421295658158
  outer loop
    vertex 77.57607247842047 49.583685823661156 7.000110333934262
    vertex 77.18370735921886 48.76186782151865 6.266716638727983
    vertex 77.62321541937418 48.74036929075706 7.000105548962157
  endloop
endfacet
facet normal -0.8573952324406313 -0.047935698014010715 0.512421295658158
  outer loop
    vertex 77.18370735921886 48.76186782151865 6.266716638727983
    vertex 77.57607247842047 49.583685823661156 7.000110333934262
    vertex 77.14169365378582 49.51331713281471 6.266719701010544
  endloop
endfacet
facet normal 0.4702093245424429 -0.718562348360074 0.5124171568483975
  outer loop
    vertex 71.94244510794415 52.139612771808395 6.26673255916514
    vertex 71.03458813062038 52.06850113231487 7.000089823027327
    vertex 71.31269326337541 51.7275126528367 6.266730158322661
  endloop
endfacet
facet normal 0.4702093245424429 -0.718562348360074 0.5124171568483975
  outer loop
    vertex 71.03458813062038 52.06850113231487 7.000089823027327
    vertex 71.94244510794415 52.139612771808395 6.26673255916514
    vertex 71.74131327466459 52.53096519955973 7.000096407061986
  endloop
endfacet
facet normal -0.041947258945449775 -0.8577133304907215 0.5124141588261178
  outer loop
    vertex 74.20606235081756 52.93018468017153 7.000112116297055
    vertex 73.3870389471472 52.53210646047045 6.26673506974425
    vertex 74.13874652110493 52.495343510500874 6.266735069742244
  endloop
endfacet
facet normal -0.041947258945449775 -0.8577133304907215 0.5124141588261178
  outer loop
    vertex 73.3870389471472 52.53210646047045 6.26673506974425
    vertex 74.20606235081756 52.93018468017153 7.000112116297055
    vertex 73.36247563211113 52.97143848718665 7.0001078027509225
  endloop
endfacet
facet normal 0.21936720177223207 0.8302293416141322 0.512442456388603
  outer loop
    vertex 72.30962867518352 45.5723470623683 6.266697056987035
    vertex 72.96994652883495 44.94522171636649 7.000057714818153
    vertex 73.03726224554057 45.380074427970804 6.266696207623554
  endloop
endfacet
facet normal 0.21936720177223207 0.8302293416141322 0.512442456388603
  outer loop
    vertex 72.96994652883495 44.94522171636649 7.000057714818153
    vertex 72.30962867518352 45.5723470623683 6.266697056987035
    vertex 72.1533726027695 45.1609699976974 7.000054590101783
  endloop
endfacet
facet normal 0.8486261106945178 -0.1313702401917226 0.5124212956537475
  outer loop
    vertex 70.10744085376875 49.85733373277915 6.2667197010286175
    vertex 69.55281866577339 49.13505946355104 7.000064282422919
    vertex 69.99230238437686 49.1135700930672 6.266716638746589
  endloop
endfacet
facet normal 0.8486261106945178 -0.1313702401917226 0.5124212956537475
  outer loop
    vertex 69.55281866577339 49.13505946355104 7.000064282422919
    vertex 70.10744085376875 49.85733373277915 6.2667197010286175
    vertex 69.68202483959826 49.9697464384243 7.000069969094739
  endloop
endfacet
facet normal -0.31057394688428314 0.8006077502190619 0.5124168750206134
  outer loop
    vertex 74.6472635310995 45.038996683010694 7.000067342126199
    vertex 75.23356414717651 45.735815154725685 6.266698718255073
    vertex 74.53189266915962 45.463665198755265 6.266697056981312
  endloop
endfacet
facet normal -0.31057394688428314 0.8006077502190619 0.5124168750206134
  outer loop
    vertex 75.23356414717651 45.735815154725685 6.266698718255073
    vertex 74.6472635310995 45.038996683010694 7.000067342126199
    vertex 75.43470214646737 45.344496717713696 7.000073424420388
  endloop
endfacet
facet normal 0.3872139017142405 0.7664817939881345 0.5124168750187347
  outer loop
    vertex 71.63786165975547 45.911666290499795 6.266698718264109
    vertex 72.1533726027695 45.1609699976974 7.000054590101783
    vertex 72.30962867518352 45.5723470623683 6.266697056987035
  endloop
endfacet
facet normal 0.3872139017142405 0.7664817939881345 0.5124168750187347
  outer loop
    vertex 72.1533726027695 45.1609699976974 7.000054590101783
    vertex 71.63786165975547 45.911666290499795 6.266698718264109
    vertex 71.399505983031 45.5418524285843 7.000052791226225
  endloop
endfacet
facet normal -0.7218254625239677 0.46517613793746854 0.5124247870133153
  outer loop
    vertex 77.19408087209698 47.1161796934208 7.000093522793478
    vertex 76.39362672269289 46.68197844002385 6.266705154709336
    vertex 76.73655813609976 46.40617620638359 7.000086806506488
  endloop
endfacet
facet normal -0.7218254625239677 0.46517613793746854 0.5124247870133153
  outer loop
    vertex 76.39362672269289 46.68197844002385 6.266705154709336
    vertex 77.19408087209698 47.1161796934208 7.000093522793478
    vertex 76.80131145358105 47.314519142414646 6.266709691634723
  endloop
endfacet
facet normal -0.8286932147746453 -0.22516625871133353 0.5124136139139989
  outer loop
    vertex 77.57607247842047 49.583685823661156 7.000110333934262
    vertex 76.9443663525315 50.239623115888655 6.266725585822982
    vertex 77.14169365378582 49.51331713281471 6.266719701010544
  endloop
endfacet
facet normal -0.8286932147746453 -0.22516625871133353 0.5124136139139989
  outer loop
    vertex 76.9443663525315 50.239623115888655 6.266725585822982
    vertex 77.57607247842047 49.583685823661156 7.000110333934262
    vertex 77.35461615998024 50.398682848238174 7.000114007396908
  endloop
endfacet
facet normal 0.8286929430878271 0.22516070336131735 0.5124164944049636
  outer loop
    vertex 70.23164339106364 47.63581479868629 6.266709691651343
    vertex 69.59996158585675 48.29174814323722 7.000059497481853
    vertex 69.82141576463904 47.476755866405625 7.000055824036012
  endloop
endfacet
facet normal 0.8286929430878271 0.22516070336131735 0.5124164944049636
  outer loop
    vertex 69.59996158585675 48.29174814323722 7.000059497481853
    vertex 70.23164339106364 47.63581479868629 6.266709691651343
    vertex 70.03431608981045 48.362120781781975 6.266711576464004
  endloop
endfacet
facet normal -0.7637783828376636 -0.39253776321431905 0.5124028555351567
  outer loop
    vertex 77.35461615998024 50.398682848238174 7.000114007396908
    vertex 76.60035096772627 50.90895643936189 6.266728122913223
    vertex 76.9443663525315 50.239623115888655 6.266725585822982
  endloop
endfacet
facet normal -0.7637783828376636 -0.39253776321431905 0.5124028555351567
  outer loop
    vertex 76.60035096772627 50.90895643936189 6.266728122913223
    vertex 77.35461615998024 50.398682848238174 7.000114007396908
    vertex 76.96855583577704 51.14989317967761 7.000116409876885
  endloop
endfacet
facet normal 0.5380853948629053 0.6692528343474867 0.5124107254469669
  outer loop
    vertex 71.05132865113026 46.38327997423605 6.266701119272637
    vertex 71.399505983031 45.5418524285843 7.000052791226225
    vertex 71.63786165975547 45.911666290499795 6.266698718264109
  endloop
endfacet
facet normal 0.5380853948629053 0.6692528343474867 0.5124107254469669
  outer loop
    vertex 71.399505983031 45.5418524285843 7.000052791226225
    vertex 71.05132865113026 46.38327997423605 6.266701119272637
    vertex 70.74127872228136 46.07103993706104 7.000052395635256
  endloop
endfacet
facet normal -0.13730773970255294 0.8476728269215669 0.5124425461615918
  outer loop
    vertex 73.81353218482424 44.903962807233036 7.000062028328051
    vertex 74.53189266915962 45.463665198755265 6.266697056981312
    vertex 73.78896882069206 45.34331152684876 6.266696207621607
  endloop
endfacet
facet normal -0.13730773970255294 0.8476728269215669 0.5124425461615918
  outer loop
    vertex 74.53189266915962 45.463665198755265 6.266697056981312
    vertex 73.81353218482424 44.903962807233036 7.000062028328051
    vertex 74.6472635310995 45.038996683010694 7.000067342126199
  endloop
endfacet
facet normal -0.8027674517595436 0.30494877381728364 0.5124164944094053
  outer loop
    vertex 77.49400714540381 47.9056775452748 7.000099862250475
    vertex 76.80131145358105 47.314519142414646 6.266709691634723
    vertex 77.19408087209698 47.1161796934208 7.000093522793478
  endloop
endfacet
facet normal -0.8027674517595436 0.30494877381728364 0.5124164944094053
  outer loop
    vertex 76.80131145358105 47.314519142414646 6.266709691634723
    vertex 77.49400714540381 47.9056775452748 7.000099862250475
    vertex 77.06856888982752 48.01810418181738 6.266711576445931
  endloop
endfacet
facet normal -0.538081609910003 -0.6692509532614993 0.5124171568509722
  outer loop
    vertex 76.43474484094476 51.804413830845135 7.000117435842426
    vertex 75.53814759536539 51.96376163603422 6.266732559156115
    vertex 76.1246820694167 51.492177916485296 6.266730158310367
  endloop
endfacet
facet normal -0.538081609910003 -0.6692509532614993 0.5124171568509722
  outer loop
    vertex 75.53814759536539 51.96376163603422 6.266732559156115
    vertex 76.43474484094476 51.804413830845135 7.000117435842426
    vertex 75.77651386480453 52.33363073906419 7.000117040407072
  endloop
endfacet
facet normal -0.8486263823849454 0.1313646847686184 0.5124222699257732
  outer loop
    vertex 77.62321541937418 48.74036929075706 7.000105548962157
    vertex 77.06856888982752 48.01810418181738 6.266711576445931
    vertex 77.49400714540381 47.9056775452748 7.000099862250475
  endloop
endfacet
facet normal -0.8486263823849454 0.1313646847686184 0.5124222699257732
  outer loop
    vertex 77.06856888982752 48.01810418181738 6.266711576445931
    vertex 77.62321541937418 48.74036929075706 7.000105548962157
    vertex 77.18370735921886 48.76186782151865 6.266716638727983
  endloop
endfacet
facet normal -0.6654720707756212 -0.5427478633838272 0.5124174858549397
  outer loop
    vertex 76.96855583577704 51.14989317967761 7.000116409876885
    vertex 76.1246820694167 51.492177916485296 6.266730158310367
    vertex 76.60035096772627 50.90895643936189 6.266728122913223
  endloop
endfacet
facet normal -0.6654720707756212 -0.5427478633838272 0.5124174858549397
  outer loop
    vertex 76.1246820694167 51.492177916485296 6.266730158310367
    vertex 76.96855583577704 51.14989317967761 7.000116409876885
    vertex 76.43474484094476 51.804413830845135 7.000117435842426
  endloop
endfacet
facet normal 0.31054248579226673 -0.8006203548312707 0.5124162487156414
  outer loop
    vertex 72.64411707443641 52.411772715841316 6.26673422049309
    vertex 71.74131327466459 52.53096519955973 7.000096407061986
    vertex 71.94244510794415 52.139612771808395 6.26673255916514
  endloop
endfacet
facet normal 0.31054248579226673 -0.8006203548312707 0.5124162487156414
  outer loop
    vertex 71.74131327466459 52.53096519955973 7.000096407061986
    vertex 72.64411707443641 52.411772715841316 6.26673422049309
    vertex 72.5287453900585 52.83639951702229 7.0001024889283014
  endloop
endfacet
facet normal 0.45086196976476145 0.8925936837079104 4.958050435776199e-06
  outer loop
    vertex 71.63786332161267 45.9117002602411 3.2950881528872e-05
    vertex 72.30962867518352 45.5723470623683 6.266697056987035
    vertex 72.30963033704181 45.57238103211668 2.9994825849190673e-05
  endloop
endfacet
facet normal 0.45086196976476145 0.8925936837079104 4.958050435776199e-06
  outer loop
    vertex 72.30962867518352 45.5723470623683 6.266697056987035
    vertex 71.63786332161267 45.9117002602411 3.2950881528872e-05
    vertex 71.63786165975547 45.911666290499795 6.266698718264109
  endloop
endfacet
facet normal 0.3616237900651278 -0.9323241037505955 -4.957954121968628e-06
  outer loop
    vertex 72.64411707443641 52.411772715841316 6.26673422049309
    vertex 71.94244676981026 52.1396467417302 3.350244199139833e-05
    vertex 72.64411873630436 52.41180668578777 3.060054023484972e-05
  endloop
endfacet
facet normal 0.3616237900651278 -0.9323241037505955 -4.957954121968628e-06
  outer loop
    vertex 71.94244676981026 52.1396467417302 3.350244199139833e-05
    vertex 72.64411707443641 52.411772715841316 6.26673422049309
    vertex 71.94244510794415 52.139612771808395 6.26673255916514
  endloop
endfacet
facet normal 0.04884753771433876 0.9988062464911761 5.427187072095271e-06
  outer loop
    vertex 73.03726490620588 45.380108348883994 2.6844886419277222e-05
    vertex 73.78896882069206 45.34331152684876 6.266696207621607
    vertex 73.78897048255135 45.34334549662692 2.363872905821006e-05
  endloop
endfacet
facet normal 0.04884753771433876 0.9988062464911761 5.427187072095271e-06
  outer loop
    vertex 73.78896882069206 45.34331152684876 6.266696207621607
    vertex 73.03726490620588 45.380108348883994 2.6844886419277222e-05
    vertex 73.03726224554057 45.380074427970804 6.266696207623554
  endloop
endfacet
facet normal -0.6266021124412965 -0.779339330885351 -4.390736613516022e-06
  outer loop
    vertex 76.1246820694167 51.492177916485296 6.266730158310367
    vertex 75.53814925723557 51.96379560603914 1.8166134318502544e-05
    vertex 76.12468373128713 51.492211886491425 1.553316560191549e-05
  endloop
endfacet
facet normal -0.6266021124412965 -0.779339330885351 -4.390736613516022e-06
  outer loop
    vertex 75.53814925723557 51.96379560603914 1.8166134318502544e-05
    vertex 76.1246820694167 51.492177916485296 6.266730158310367
    vertex 75.53814759536539 51.96376163603422 6.266732559156115
  endloop
endfacet
facet normal 0.2554748766259058 0.9668156946308955 5.325162508921767e-06
  outer loop
    vertex 72.30963033704181 45.57238103211668 2.9994825849190673e-05
    vertex 73.03726224554057 45.380074427970804 6.266696207623554
    vertex 73.03726490620588 45.380108348883994 2.6844886419277222e-05
  endloop
endfacet
facet normal 0.2554748766259058 0.9668156946308955 5.325162508921767e-06
  outer loop
    vertex 73.03726224554057 45.380074427970804 6.266696207623554
    vertex 72.30963033704181 45.57238103211668 2.9994825849190673e-05
    vertex 72.30962867518352 45.5723470623683 6.266697056987035
  endloop
endfacet
facet normal -0.8405423600602815 0.5417458268754155 2.7137404159193887e-06
  outer loop
    vertex 76.80131145358105 47.314519142414646 6.266709691634723
    vertex 76.39362838455688 46.68201240990833 1.2964006005690098e-05
    vertex 76.39362672269289 46.68197844002385 6.266705154709336
  endloop
endfacet
facet normal -0.8405423600602815 0.5417458268754155 2.7137404159193887e-06
  outer loop
    vertex 76.39362838455688 46.68201240990833 1.2964006005690098e-05
    vertex 76.80131145358105 47.314519142414646 6.266709691634723
    vertex 76.80131311544712 47.31455311233221 1.1418582913660783e-05
  endloop
endfacet
facet normal -0.04884753771438441 -0.9988062464911739 -5.427187094923131e-06
  outer loop
    vertex 74.13874652110493 52.495343510500874 6.266735069742244
    vertex 73.38704160782885 52.532140381590736 2.7478285904568958e-05
    vertex 74.13874718416102 52.49537752933428 2.427212854355863e-05
  endloop
endfacet
facet normal -0.04884753771438441 -0.9988062464911739 -5.427187094923131e-06
  outer loop
    vertex 73.38704160782885 52.532140381590736 2.7478285904568958e-05
    vertex 74.13874652110493 52.495343510500874 6.266735069742244
    vertex 73.3870389471472 52.53210646047045 6.26673506974425
  endloop
endfacet
facet normal -0.9650183995095561 -0.26218216683291445 -1.6771252509259168e-06
  outer loop
    vertex 76.9443663525315 50.239623115888655 6.266725585822982
    vertex 77.1416953156547 49.51335110279074 1.0623551269257468e-05
    vertex 77.14169365378582 49.51331713281471 6.266719701010544
  endloop
endfacet
facet normal -0.9650183995095561 -0.26218216683291445 -1.6771252509259168e-06
  outer loop
    vertex 77.1416953156547 49.51335110279074 1.0623551269257468e-05
    vertex 76.9443663525315 50.239623115888655 6.266725585822982
    vertex 76.94436801440176 50.23965708589094 1.1677636472547853e-05
  endloop
endfacet
facet normal -0.5475921228857386 0.8367454015016834 4.3905333010476635e-06
  outer loop
    vertex 75.23356580903788 45.73584912455007 1.7614573855976618e-05
    vertex 75.86331745717132 46.147945237884834 6.266701119260312
    vertex 75.86331911903434 46.147979207736135 1.5059868752479713e-05
  endloop
endfacet
facet normal -0.5475921228857386 0.8367454015016834 4.3905333010476635e-06
  outer loop
    vertex 75.86331745717132 46.147945237884834 6.266701119260312
    vertex 75.23356580903788 45.73584912455007 1.7614573855976618e-05
    vertex 75.23356414717651 45.735815154725685 6.266698718255073
  endloop
endfacet
facet normal -0.3616124729998217 0.9323284932610242 4.957980931851841e-06
  outer loop
    vertex 74.53189433101996 45.46369916855506 2.0516476497086367e-05
    vertex 75.23356414717651 45.735815154725685 6.266698718255073
    vertex 75.23356580903788 45.73584912455007 1.7614573855976618e-05
  endloop
endfacet
facet normal -0.3616124729998217 0.9323284932610242 4.957980931851841e-06
  outer loop
    vertex 75.23356414717651 45.735815154725685 6.266698718255073
    vertex 74.53189433101996 45.46369916855506 2.0516476497086367e-05
    vertex 74.53189266915962 45.463665198755265 6.266697056981312
  endloop
endfacet
facet normal 0.8893938731117739 0.45714170501483786 2.7138884035891516e-06
  outer loop
    vertex 70.57566190315364 46.966545409161235 3.777866303068942e-05
    vertex 70.23164339106364 47.63581479868629 6.266709691651343
    vertex 70.57566024129584 46.9665114394111 6.266705154724174
  endloop
endfacet
facet normal 0.8893938731117739 0.45714170501483786 2.7138884035891516e-06
  outer loop
    vertex 70.23164339106364 47.63581479868629 6.266709691651343
    vertex 70.57566190315364 46.966545409161235 3.777866303068942e-05
    vertex 70.23164505292284 47.635848768451886 3.943938025938743e-05
  endloop
endfacet
facet normal -0.9882288284682129 0.15298294867083037 5.672068295905727e-07
  outer loop
    vertex 77.18370735921886 48.76186782151865 6.266716638727983
    vertex 77.06857055169415 48.01813815175017 1.0491131963904949e-05
    vertex 77.06856888982752 48.01810418181738 6.266711576445931
  endloop
endfacet
facet normal -0.9882288284682129 0.15298294867083037 5.672068295905727e-07
  outer loop
    vertex 77.06857055169415 48.01813815175017 1.0491131963904949e-05
    vertex 77.18370735921886 48.76186782151865 6.266716638727983
    vertex 77.18370902108752 48.76190179148032 1.0222200693072304e-05
  endloop
endfacet
facet normal 0.7749468095151679 0.6320264570483376 3.6315366402125305e-06
  outer loop
    vertex 71.0513303129875 46.383313943976134 3.5583852899151364e-05
    vertex 70.57566024129584 46.9665114394111 6.266705154724174
    vertex 71.05132865113026 46.38327997423605 6.266701119272637
  endloop
endfacet
facet normal 0.7749468095151679 0.6320264570483376 3.6315366402125305e-06
  outer loop
    vertex 70.57566024129584 46.9665114394111 6.266705154724174
    vertex 71.0513303129875 46.383313943976134 3.5583852899151364e-05
    vertex 70.57566190315364 46.966545409161235 3.777866303068942e-05
  endloop
endfacet
facet normal 0.9348298436834871 -0.3550959917485624 -1.6769626651040146e-06
  outer loop
    vertex 70.10744251563013 49.85736770259259 4.062588476803151e-05
    vertex 70.37469829001384 50.5609187721603 6.266725585839677
    vertex 70.10744085376875 49.85733373277915 6.2667197010286175
  endloop
endfacet
facet normal 0.9348298436834871 -0.3550959917485624 -1.6769626651040146e-06
  outer loop
    vertex 70.37469829001384 50.5609187721603 6.266725585839677
    vertex 70.10744251563013 49.85736770259259 4.062588476803151e-05
    vertex 70.37469995187729 50.56095274201063 3.969843381827528e-05
  endloop
endfacet
facet normal -0.2554497456320244 -0.9668223349863866 -5.29201141460521e-06
  outer loop
    vertex 74.86638106841251 52.303090852228266 6.266734220487479
    vertex 74.13874718416102 52.49537752933428 2.427212854355863e-05
    vertex 74.86638273028238 52.303124822226174 2.112219088274618e-05
  endloop
endfacet
facet normal -0.2554497456320244 -0.9668223349863866 -5.29201141460521e-06
  outer loop
    vertex 74.13874718416102 52.49537752933428 2.427212854355863e-05
    vertex 74.86638106841251 52.303090852228266 6.266734220487479
    vertex 74.13874652110493 52.495343510500874 6.266735069742244
  endloop
endfacet
facet normal 0.9984406777975371 0.055823050067807474 5.673767739773054e-07
  outer loop
    vertex 70.03431775166953 48.362154751552126 4.0493465462679386e-05
    vertex 69.99230238437686 49.1135700930672 6.266716638746589
    vertex 70.03431608981045 48.362120781781975 6.266711576464004
  endloop
endfacet
facet normal 0.9984406777975371 0.055823050067807474 5.673767739773054e-07
  outer loop
    vertex 69.99230238437686 49.1135700930672 6.266716638746589
    vertex 70.03431775166953 48.362154751552126 4.0493465462679386e-05
    vertex 69.99230404623664 49.11360406286267 4.089481603886495e-05
  endloop
endfacet
facet normal -0.9984406777975399 -0.05582305006775603 -5.673768093585961e-07
  outer loop
    vertex 77.14169365378582 49.51331713281471 6.266719701010544
    vertex 77.18370902108752 48.76190179148032 1.0222200693072304e-05
    vertex 77.18370735921886 48.76186782151865 6.266716638727983
  endloop
endfacet
facet normal -0.9984406777975399 -0.05582305006775603 -5.673768093585961e-07
  outer loop
    vertex 77.18370902108752 48.76190179148032 1.0222200693072304e-05
    vertex 77.14169365378582 49.51331713281471 6.266719701010544
    vertex 77.1416953156547 49.51335110279074 1.0623551269257468e-05
  endloop
endfacet
facet normal 0.626627244190777 0.7793191238630006 4.390633727830207e-06
  outer loop
    vertex 71.0513303129875 46.383313943976134 3.5583852899151364e-05
    vertex 71.63786165975547 45.911666290499795 6.266698718264109
    vertex 71.63786332161267 45.9117002602411 3.2950881528872e-05
  endloop
endfacet
facet normal 0.626627244190777 0.7793191238630006 4.390633727830207e-06
  outer loop
    vertex 71.63786165975547 45.911666290499795 6.266698718264109
    vertex 71.0513303129875 46.383313943976134 3.5583852899151364e-05
    vertex 71.05132865113026 46.38327997423605 6.266701119272637
  endloop
endfacet
facet normal -0.1599151938200703 0.9871307566666683 5.308535902049347e-06
  outer loop
    vertex 73.78897048255135 45.34334549662692 2.363872905821006e-05
    vertex 74.53189266915962 45.463665198755265 6.266697056981312
    vertex 74.53189433101996 45.46369916855506 2.0516476497086367e-05
  endloop
endfacet
facet normal -0.1599151938200703 0.9871307566666683 5.308535902049347e-06
  outer loop
    vertex 74.53189266915962 45.463665198755265 6.266697056981312
    vertex 73.78897048255135 45.34334549662692 2.363872905821006e-05
    vertex 73.78896882069206 45.34331152684876 6.266696207621607
  endloop
endfacet
facet normal 0.9650183995095115 0.2621821668330789 1.6771253136449337e-06
  outer loop
    vertex 70.23164505292284 47.635848768451886 3.943938025938743e-05
    vertex 70.03431608981045 48.362120781781975 6.266711576464004
    vertex 70.23164339106364 47.63581479868629 6.266709691651343
  endloop
endfacet
facet normal 0.9650183995095115 0.2621821668330789 1.6771253136449337e-06
  outer loop
    vertex 70.03431608981045 48.362120781781975 6.266711576464004
    vertex 70.23164505292284 47.635848768451886 3.943938025938743e-05
    vertex 70.03431775166953 48.362154751552126 4.0493465462679386e-05
  endloop
endfacet
facet normal -0.9348298436834185 0.3550959917487427 1.676962755557878e-06
  outer loop
    vertex 77.06856888982752 48.01810418181738 6.266711576445931
    vertex 76.80131311544712 47.31455311233221 1.1418582913660783e-05
    vertex 76.80131145358105 47.314519142414646 6.266709691634723
  endloop
endfacet
facet normal -0.9348298436834185 0.3550959917487427 1.676962755557878e-06
  outer loop
    vertex 76.80131311544712 47.31455311233221 1.1418582913660783e-05
    vertex 77.06856888982752 48.01810418181738 6.266711576445931
    vertex 77.06857055169415 48.01813815175017 1.0491131963904949e-05
  endloop
endfacet
facet normal 0.15988967116928218 -0.9871348909978686 -5.2919758742196135e-06
  outer loop
    vertex 73.3870389471472 52.53210646047045 6.26673506974425
    vertex 72.64411873630436 52.41180668578777 3.060054023484972e-05
    vertex 73.38704160782885 52.532140381590736 2.7478285904568958e-05
  endloop
endfacet
facet normal 0.15988967116928218 -0.9871348909978686 -5.2919758742196135e-06
  outer loop
    vertex 72.64411873630436 52.41180668578777 3.060054023484972e-05
    vertex 73.3870389471472 52.53210646047045 6.26673506974425
    vertex 72.64411707443641 52.411772715841316 6.26673422049309
  endloop
endfacet
facet normal 0.8405531587632259 -0.5417290718484652 -2.7136466511282388e-06
  outer loop
    vertex 70.37469995187729 50.56095274201063 3.969843381827528e-05
    vertex 70.78238448632901 51.19348943874906 6.266728122928039
    vertex 70.37469829001384 50.5609187721603 6.266725585839677
  endloop
endfacet
facet normal 0.8405531587632259 -0.5417290718484652 -2.7136466511282388e-06
  outer loop
    vertex 70.78238448632901 51.19348943874906 6.266728122928039
    vertex 70.37469995187729 50.56095274201063 3.969843381827528e-05
    vertex 70.78238614819304 51.193523408621644 3.8153013379941766e-05
  endloop
endfacet
facet normal 0.7095702085226194 -0.7046347416669002 -3.6314455240181338e-06
  outer loop
    vertex 70.78238614819304 51.193523408621644 3.8153013379941766e-05
    vertex 71.31269326337541 51.7275126528367 6.266730158322661
    vertex 70.78238448632901 51.19348943874906 6.266728122928039
  endloop
endfacet
facet normal 0.7095702085226194 -0.7046347416669002 -3.6314455240181338e-06
  outer loop
    vertex 71.31269326337541 51.7275126528367 6.266730158322661
    vertex 70.78238614819304 51.193523408621644 3.8153013379941766e-05
    vertex 71.31269492524032 51.7275466227316 3.605714974858716e-05
  endloop
endfacet
facet normal -0.8894029853518859 -0.4571239762250376 -2.7137946569467095e-06
  outer loop
    vertex 76.60035096772627 50.90895643936189 6.266728122913223
    vertex 76.94436801440176 50.23965708589094 1.1677636472547853e-05
    vertex 76.9443663525315 50.239623115888655 6.266725585822982
  endloop
endfacet
facet normal -0.8894029853518859 -0.4571239762250376 -2.7137946569467095e-06
  outer loop
    vertex 76.94436801440176 50.23965708589094 1.1677636472547853e-05
    vertex 76.60035096772627 50.90895643936189 6.266728122913223
    vertex 76.6003526295964 50.908990409368926 1.3338356354942095e-05
  endloop
endfacet
facet normal -0.7749411902320098 -0.6320333469593261 -3.631572484037871e-06
  outer loop
    vertex 76.1246820694167 51.492177916485296 6.266730158310367
    vertex 76.6003526295964 50.908990409368926 1.3338356354942095e-05
    vertex 76.60035096772627 50.90895643936189 6.266728122913223
  endloop
endfacet
facet normal -0.7749411902320098 -0.6320333469593261 -3.631572484037871e-06
  outer loop
    vertex 76.6003526295964 50.908990409368926 1.3338356354942095e-05
    vertex 76.1246820694167 51.492177916485296 6.266730158310367
    vertex 76.12468373128713 51.492211886491425 1.553316560191549e-05
  endloop
endfacet
facet normal -0.45087280450180395 -0.8925882108431056 -4.958023625295195e-06
  outer loop
    vertex 75.53814759536539 51.96376163603422 6.266732559156115
    vertex 74.86638273028238 52.303124822226174 2.112219088274618e-05
    vertex 75.53814925723557 51.96379560603914 1.8166134318502544e-05
  endloop
endfacet
facet normal -0.45087280450180395 -0.8925882108431056 -4.958023625295195e-06
  outer loop
    vertex 74.86638273028238 52.303124822226174 2.112219088274618e-05
    vertex 75.53814759536539 51.96376163603422 6.266732559156115
    vertex 74.86638106841251 52.303090852228266 6.266734220487479
  endloop
endfacet
facet normal 0.988228828468191 -0.1529829486709716 -5.672068437472251e-07
  outer loop
    vertex 69.99230404623664 49.11360406286267 4.089481603886495e-05
    vertex 70.10744085376875 49.85733373277915 6.2667197010286175
    vertex 69.99230238437686 49.1135700930672 6.266716638746589
  endloop
endfacet
facet normal 0.988228828468191 -0.1529829486709716 -5.672068437472251e-07
  outer loop
    vertex 70.10744085376875 49.85733373277915 6.2667197010286175
    vertex 69.99230404623664 49.11360406286267 4.089481603886495e-05
    vertex 70.10744251563013 49.85736770259259 4.062588476803151e-05
  endloop
endfacet
facet normal 0.5475651392991963 -0.8367630597755701 -4.390636196460044e-06
  outer loop
    vertex 71.94244510794415 52.139612771808395 6.26673255916514
    vertex 71.31269492524032 51.7275466227316 3.605714974858716e-05
    vertex 71.94244676981026 52.1396467417302 3.350244199139833e-05
  endloop
endfacet
facet normal 0.5475651392991963 -0.8367630597755701 -4.390636196460044e-06
  outer loop
    vertex 71.31269492524032 51.7275466227316 3.605714974858716e-05
    vertex 71.94244510794415 52.139612771808395 6.26673255916514
    vertex 71.31269326337541 51.7275126528367 6.266730158322661
  endloop
endfacet
facet normal -0.7095764732961555 0.7046284329569759 3.6314096735903607e-06
  outer loop
    vertex 76.39362672269289 46.68197844002385 6.266705154709336
    vertex 75.86331911903434 46.147979207736135 1.5059868752479713e-05
    vertex 75.86331745717132 46.147945237884834 6.266701119260312
  endloop
endfacet
facet normal -0.7095764732961555 0.7046284329569759 3.6314096735903607e-06
  outer loop
    vertex 75.86331911903434 46.147979207736135 1.5059868752479713e-05
    vertex 76.39362672269289 46.68197844002385 6.266705154709336
    vertex 76.39362838455688 46.68201240990833 1.2964006005690098e-05
  endloop
endfacet
facet normal -0.04884724060820101 -0.9988062610232068 -5.079976847300594e-06
  outer loop
    vertex 75.24371579814293 41.84839672269155 4.999999999986606
    vertex 67.24907802753474 42.23940932012947 1.0646153222560739e-05
    vertex 75.24378377726445 41.848412804008355 1.0640724970108066e-05
  endloop
endfacet
facet normal -0.04884724060820101 -0.9988062610232068 -5.079976847300594e-06
  outer loop
    vertex 67.24907802753474 42.23940932012947 1.0646153222560739e-05
    vertex 75.24371579814293 41.84839672269155 4.999999999986606
    vertex 67.25323681993265 42.23916173089373 7.00001064072495
  endloop
endfacet
facet normal -0.04884724060820101 -0.9988062610232068 -5.079976847300594e-06
  outer loop
    vertex 67.25323681993265 42.23916173089373 7.00001064072495
    vertex 75.24371579814293 41.84839672269155 4.999999999986606
    vertex 79.23894060401229 41.653007499156864 5.000061286695785
  endloop
endfacet
facet normal -0.04884724060820101 -0.9988062610232068 -5.079976847300594e-06
  outer loop
    vertex 67.25323681993265 42.23916173089373 7.00001064072495
    vertex 79.23894060401229 41.653007499156864 5.000061286695785
    vertex 79.23891203450682 41.65300113396072 7.000071927403592
  endloop
endfacet
facet normal -5.405592603132655e-06 -5.9761755406100105e-06 0.9999999999675324
  outer loop
    vertex 67.25323681993265 42.23916173089373 7.00001064072495
    vertex 69.59996158585675 48.29174814323722 7.000059497481853
    vertex 67.93709646162891 56.22244410497495 7.00009790394165
  endloop
endfacet
facet normal -5.405592603132655e-06 -5.9761755406100105e-06 0.9999999999675324
  outer loop
    vertex 69.59996158585675 48.29174814323722 7.000059497481853
    vertex 67.25323681993265 42.23916173089373 7.00001064072495
    vertex 69.82141576463904 47.476755866405625 7.000055824036012
  endloop
endfacet
facet normal -5.405592603132655e-06 -5.9761755406100105e-06 0.9999999999675324
  outer loop
    vertex 69.82141576463904 47.476755866405625 7.000055824036012
    vertex 67.25323681993265 42.23916173089373 7.00001064072495
    vertex 70.20746975956344 46.72549906750792 7.000053421244125
  endloop
endfacet
facet normal -5.405592603132655e-06 -5.9761755406100105e-06 0.9999999999675324
  outer loop
    vertex 70.20746975956344 46.72549906750792 7.000053421244125
    vertex 67.25323681993265 42.23916173089373 7.00001064072495
    vertex 70.74127872228136 46.07103993706104 7.000052395635256
  endloop
endfacet
facet normal -5.405592603132655e-06 -5.9761755406100105e-06 0.9999999999675324
  outer loop
    vertex 70.74127872228136 46.07103993706104 7.000052395635256
    vertex 67.25323681993265 42.23916173089373 7.00001064072495
    vertex 71.399505983031 45.5418524285843 7.000052791226225
  endloop
endfacet
facet normal -5.405592603132655e-06 -5.9761755406100105e-06 0.9999999999675324
  outer loop
    vertex 71.399505983031 45.5418524285843 7.000052791226225
    vertex 67.25323681993265 42.23916173089373 7.00001064072495
    vertex 72.1533726027695 45.1609699976974 7.000054590101783
  endloop
endfacet
facet normal -5.405592603132655e-06 -5.9761755406100105e-06 0.9999999999675324
  outer loop
    vertex 72.1533726027695 45.1609699976974 7.000054590101783
    vertex 67.25323681993265 42.23916173089373 7.00001064072495
    vertex 79.23891203450682 41.65300113396072 7.000071927403592
  endloop
endfacet
facet normal -5.405592603132655e-06 -5.9761755406100105e-06 0.9999999999675324
  outer loop
    vertex 67.93709646162891 56.22244410497495 7.00009790394165
    vertex 69.59996158585675 48.29174814323722 7.000059497481853
    vertex 69.55281866577339 49.13505946355104 7.000064282422919
  endloop
endfacet
facet normal -5.405592603132655e-06 -5.9761755406100105e-06 0.9999999999675324
  outer loop
    vertex 72.1533726027695 45.1609699976974 7.000054590101783
    vertex 79.23891203450682 41.65300113396072 7.000071927403592
    vertex 72.96994652883495 44.94522171636649 7.000057714818153
  endloop
endfacet
facet normal -5.405592603132655e-06 -5.9761755406100105e-06 0.9999999999675324
  outer loop
    vertex 72.96994652883495 44.94522171636649 7.000057714818153
    vertex 79.23891203450682 41.65300113396072 7.000071927403592
    vertex 73.81353218482424 44.903962807233036 7.000062028328051
  endloop
endfacet
facet normal -5.405592603132655e-06 -5.9761755406100105e-06 0.9999999999675324
  outer loop
    vertex 73.81353218482424 44.903962807233036 7.000062028328051
    vertex 79.23891203450682 41.65300113396072 7.000071927403592
    vertex 74.6472635310995 45.038996683010694 7.000067342126199
  endloop
endfacet
facet normal -5.405592603132655e-06 -5.9761755406100105e-06 0.9999999999675324
  outer loop
    vertex 74.6472635310995 45.038996683010694 7.000067342126199
    vertex 79.23891203450682 41.65300113396072 7.000071927403592
    vertex 75.43470214646737 45.344496717713696 7.000073424420388
  endloop
endfacet
facet normal -5.405592603132655e-06 -5.9761755406100105e-06 0.9999999999675324
  outer loop
    vertex 75.43470214646737 45.344496717713696 7.000073424420388
    vertex 79.23891203450682 41.65300113396072 7.000071927403592
    vertex 76.14143034890643 45.80692822963617 7.000080008277021
  endloop
endfacet
facet normal -5.405592603132655e-06 -5.9761755406100105e-06 0.9999999999675324
  outer loop
    vertex 76.14143034890643 45.80692822963617 7.000080008277021
    vertex 79.23891203450682 41.65300113396072 7.000071927403592
    vertex 76.73655813609976 46.40617620638359 7.000086806506488
  endloop
endfacet
facet normal -5.405592603132655e-06 -5.9761755406100105e-06 0.9999999999675324
  outer loop
    vertex 76.73655813609976 46.40617620638359 7.000086806506488
    vertex 79.23891203450682 41.65300113396072 7.000071927403592
    vertex 77.19408087209698 47.1161796934208 7.000093522793478
  endloop
endfacet
facet normal -5.405592603132655e-06 -5.9761755406100105e-06 0.9999999999675324
  outer loop
    vertex 77.19408087209698 47.1161796934208 7.000093522793478
    vertex 79.23891203450682 41.65300113396072 7.000071927403592
    vertex 77.49400714540381 47.9056775452748 7.000099862250475
  endloop
endfacet
facet normal -5.405592603132655e-06 -5.9761755406100105e-06 0.9999999999675324
  outer loop
    vertex 77.49400714540381 47.9056775452748 7.000099862250475
    vertex 79.23891203450682 41.65300113396072 7.000071927403592
    vertex 77.62321541937418 48.74036929075706 7.000105548962157
  endloop
endfacet
facet normal -5.405592603132655e-06 -5.9761755406100105e-06 0.9999999999675324
  outer loop
    vertex 67.93709646162891 56.22244410497495 7.00009790394165
    vertex 72.5287453900585 52.83639951702229 7.0001024889283014
    vertex 79.92277167620327 55.63628350804201 7.000159190620337
  endloop
endfacet
facet normal -5.405592603132655e-06 -5.9761755406100105e-06 0.9999999999675324
  outer loop
    vertex 72.5287453900585 52.83639951702229 7.0001024889283014
    vertex 67.93709646162891 56.22244410497495 7.00009790394165
    vertex 71.74131327466459 52.53096519955973 7.000096407061986
  endloop
endfacet
facet normal -5.405592603132655e-06 -5.9761755406100105e-06 0.9999999999675324
  outer loop
    vertex 71.74131327466459 52.53096519955973 7.000096407061986
    vertex 67.93709646162891 56.22244410497495 7.00009790394165
    vertex 71.03458813062038 52.06850113231487 7.000089823027327
  endloop
endfacet
facet normal -5.405592603132655e-06 -5.9761755406100105e-06 0.9999999999675324
  outer loop
    vertex 71.03458813062038 52.06850113231487 7.000089823027327
    vertex 67.93709646162891 56.22244410497495 7.00009790394165
    vertex 70.43946259757378 51.469192699159045 7.000083024448751
  endloop
endfacet
facet normal -5.405592603132655e-06 -5.9761755406100105e-06 0.9999999999675324
  outer loop
    vertex 70.43946259757378 51.469192699159045 7.000083024448751
    vertex 67.93709646162891 56.22244410497495 7.00009790394165
    vertex 69.98194725418499 50.75924079135985 7.000076308509966
  endloop
endfacet
facet normal -5.405592603132655e-06 -5.9761755406100105e-06 0.9999999999675324
  outer loop
    vertex 69.98194725418499 50.75924079135985 7.000076308509966
    vertex 67.93709646162891 56.22244410497495 7.00009790394165
    vertex 69.68202483959826 49.9697464384243 7.000069969094739
  endloop
endfacet
facet normal -5.405592603132655e-06 -5.9761755406100105e-06 0.9999999999675324
  outer loop
    vertex 69.68202483959826 49.9697464384243 7.000069969094739
    vertex 67.93709646162891 56.22244410497495 7.00009790394165
    vertex 69.55281866577339 49.13505946355104 7.000064282422919
  endloop
endfacet
facet normal -5.405592603132655e-06 -5.9761755406100105e-06 0.9999999999675324
  outer loop
    vertex 79.92277167620327 55.63628350804201 7.000159190620337
    vertex 72.5287453900585 52.83639951702229 7.0001024889283014
    vertex 73.36247563211113 52.97143848718665 7.0001078027509225
  endloop
endfacet
facet normal -5.405592603132655e-06 -5.9761755406100105e-06 0.9999999999675324
  outer loop
    vertex 79.92277167620327 55.63628350804201 7.000159190620337
    vertex 73.36247563211113 52.97143848718665 7.0001078027509225
    vertex 74.20606235081756 52.93018468017153 7.000112116297055
  endloop
endfacet
facet normal -5.405592603132655e-06 -5.9761755406100105e-06 0.9999999999675324
  outer loop
    vertex 79.92277167620327 55.63628350804201 7.000159190620337
    vertex 74.20606235081756 52.93018468017153 7.000112116297055
    vertex 75.02263932301412 52.71444062701439 7.0001152410551635
  endloop
endfacet
facet normal -5.405592603132655e-06 -5.9761755406100105e-06 0.9999999999675324
  outer loop
    vertex 79.92277167620327 55.63628350804201 7.000159190620337
    vertex 75.02263932301412 52.71444062701439 7.0001152410551635
    vertex 75.77651386480453 52.33363073906419 7.000117040407072
  endloop
endfacet
facet normal -5.405592603132655e-06 -5.9761755406100105e-06 0.9999999999675324
  outer loop
    vertex 79.92277167620327 55.63628350804201 7.000159190620337
    vertex 75.77651386480453 52.33363073906419 7.000117040407072
    vertex 76.43474484094476 51.804413830845135 7.000117435842426
  endloop
endfacet
facet normal -5.405592603132655e-06 -5.9761755406100105e-06 0.9999999999675324
  outer loop
    vertex 79.92277167620327 55.63628350804201 7.000159190620337
    vertex 76.43474484094476 51.804413830845135 7.000117435842426
    vertex 76.96855583577704 51.14989317967761 7.000116409876885
  endloop
endfacet
facet normal -5.405592603132655e-06 -5.9761755406100105e-06 0.9999999999675324
  outer loop
    vertex 79.92277167620327 55.63628350804201 7.000159190620337
    vertex 76.96855583577704 51.14989317967761 7.000116409876885
    vertex 77.35461615998024 50.398682848238174 7.000114007396908
  endloop
endfacet
facet normal -5.405592603132655e-06 -5.9761755406100105e-06 0.9999999999675324
  outer loop
    vertex 79.92277167620327 55.63628350804201 7.000159190620337
    vertex 77.35461615998024 50.398682848238174 7.000114007396908
    vertex 77.57607247842047 49.583685823661156 7.000110333934262
  endloop
endfacet
facet normal -5.405592603132655e-06 -5.9761755406100105e-06 0.9999999999675324
  outer loop
    vertex 79.92277167620327 55.63628350804201 7.000159190620337
    vertex 77.57607247842047 49.583685823661156 7.000110333934262
    vertex 77.62321541937418 48.74036929075706 7.000105548962157
  endloop
endfacet
facet normal -5.405592603132655e-06 -5.9761755406100105e-06 0.9999999999675324
  outer loop
    vertex 79.92277167620327 55.63628350804201 7.000159190620337
    vertex 77.62321541937418 48.74036929075706 7.000105548962157
    vertex 79.23891203450682 41.65300113396072 7.000071927403592
  endloop
endfacet
facet normal -0.998806069130712 0.048851164443707386 3.865144627883607e-07
  outer loop
    vertex 77.66178133389694 91.28931983238675 19.00000000000009
    vertex 77.3198329453275 84.29767687099675 5.000000000000085
    vertex 77.3198329453275 84.29767687099672 19.000000000000075
  endloop
endfacet
facet normal -0.998806069130712 0.048851164443707386 3.865144627883607e-07
  outer loop
    vertex 77.3198329453275 84.29767687099675 5.000000000000085
    vertex 75.92754687087111 55.83167273127572 -1.0640675497937294e-05
    vertex 75.92757989464849 55.83167111633974 5.000000000000041
  endloop
endfacet
facet normal -0.998806069130712 0.048851164443707386 3.865144627883607e-07
  outer loop
    vertex 75.92754687087111 55.83167273127572 -1.0640675497937294e-05
    vertex 77.3198329453275 84.29767687099675 5.000000000000085
    vertex 77.66178133389694 91.28931983238677 9.473741299950552e-14
  endloop
endfacet
facet normal -0.998806069130712 0.048851164443707386 3.865144627883607e-07
  outer loop
    vertex 77.66178133389694 91.28931983238677 9.473741299950552e-14
    vertex 77.3198329453275 84.29767687099675 5.000000000000085
    vertex 77.66178133389694 91.28931983238675 19.00000000000009
  endloop
endfacet
facet normal -4.2506790929802075e-06 2.9644554000745945e-07 -0.9999999999909219
  outer loop
    vertex 67.24907802753474 42.23940932012947 1.0646153222560739e-05
    vertex 71.0513303129875 46.383313943976134 3.5583852899151364e-05
    vertex 75.24378377726445 41.848412804008355 1.0640724970108066e-05
  endloop
endfacet
facet normal -4.2506790929802075e-06 2.9644554000745945e-07 -0.9999999999909219
  outer loop
    vertex 71.0513303129875 46.383313943976134 3.5583852899151364e-05
    vertex 67.24907802753474 42.23940932012947 1.0646153222560739e-05
    vertex 70.57566190315364 46.966545409161235 3.777866303068942e-05
  endloop
endfacet
facet normal -4.2506790929802075e-06 2.9644554000745945e-07 -0.9999999999909219
  outer loop
    vertex 70.57566190315364 46.966545409161235 3.777866303068942e-05
    vertex 67.24907802753474 42.23940932012947 1.0646153222560739e-05
    vertex 70.23164505292284 47.635848768451886 3.943938025938743e-05
  endloop
endfacet
facet normal -4.2506790929802075e-06 2.9644554000745945e-07 -0.9999999999909219
  outer loop
    vertex 70.23164505292284 47.635848768451886 3.943938025938743e-05
    vertex 67.24907802753474 42.23940932012947 1.0646153222560739e-05
    vertex 70.03431775166953 48.362154751552126 4.0493465462679386e-05
  endloop
endfacet
facet normal -4.2506790929802075e-06 2.9644554000745945e-07 -0.9999999999909219
  outer loop
    vertex 70.03431775166953 48.362154751552126 4.0493465462679386e-05
    vertex 67.24907802753474 42.23940932012947 1.0646153222560739e-05
    vertex 67.93297219327027 56.222673878330085 0.00012569464138297162
  endloop
endfacet
facet normal -4.2506790929802075e-06 2.9644554000745945e-07 -0.9999999999909219
  outer loop
    vertex 70.03431775166953 48.362154751552126 4.0493465462679386e-05
    vertex 67.93297219327027 56.222673878330085 0.00012569464138297162
    vertex 69.99230404623664 49.11360406286267 4.089481603886495e-05
  endloop
endfacet
facet normal -4.2506790929802075e-06 2.9644554000745945e-07 -0.9999999999909219
  outer loop
    vertex 75.24378377726445 41.848412804008355 1.0640724970108066e-05
    vertex 71.0513303129875 46.383313943976134 3.5583852899151364e-05
    vertex 71.63786332161267 45.9117002602411 3.2950881528872e-05
  endloop
endfacet
facet normal -4.2506790929802075e-06 2.9644554000745945e-07 -0.9999999999909219
  outer loop
    vertex 75.24378377726445 41.848412804008355 1.0640724970108066e-05
    vertex 71.63786332161267 45.9117002602411 3.2950881528872e-05
    vertex 72.30963033704181 45.57238103211668 2.9994825849190673e-05
  endloop
endfacet
facet normal -4.2506790929802075e-06 2.9644554000745945e-07 -0.9999999999909219
  outer loop
    vertex 75.24378377726445 41.848412804008355 1.0640724970108066e-05
    vertex 72.30963033704181 45.57238103211668 2.9994825849190673e-05
    vertex 73.03726490620588 45.380108348883994 2.6844886419277222e-05
  endloop
endfacet
facet normal -4.2506790929802075e-06 2.9644554000745945e-07 -0.9999999999909219
  outer loop
    vertex 75.24378377726445 41.848412804008355 1.0640724970108066e-05
    vertex 73.03726490620588 45.380108348883994 2.6844886419277222e-05
    vertex 73.78897048255135 45.34334549662692 2.363872905821006e-05
  endloop
endfacet
facet normal -4.2506790929802075e-06 2.9644554000745945e-07 -0.9999999999909219
  outer loop
    vertex 75.24378377726445 41.848412804008355 1.0640724970108066e-05
    vertex 73.78897048255135 45.34334549662692 2.363872905821006e-05
    vertex 74.53189433101996 45.46369916855506 2.0516476497086367e-05
  endloop
endfacet
facet normal -4.2506790929802075e-06 2.9644554000745945e-07 -0.9999999999909219
  outer loop
    vertex 75.24378377726445 41.848412804008355 1.0640724970108066e-05
    vertex 74.53189433101996 45.46369916855506 2.0516476497086367e-05
    vertex 75.23356580903788 45.73584912455007 1.7614573855976618e-05
  endloop
endfacet
facet normal -4.2506790929802075e-06 2.9644554000745945e-07 -0.9999999999909219
  outer loop
    vertex 75.24378377726445 41.848412804008355 1.0640724970108066e-05
    vertex 75.23356580903788 45.73584912455007 1.7614573855976618e-05
    vertex 75.86331911903434 46.147979207736135 1.5059868752479713e-05
  endloop
endfacet
facet normal -4.2506790929802075e-06 2.9644554000745945e-07 -0.9999999999909219
  outer loop
    vertex 67.93297219327027 56.222673878330085 0.00012569464138297162
    vertex 70.10744251563013 49.85736770259259 4.062588476803151e-05
    vertex 69.99230404623664 49.11360406286267 4.089481603886495e-05
  endloop
endfacet
facet normal -4.2506790929802075e-06 2.9644554000745945e-07 -0.9999999999909219
  outer loop
    vertex 70.10744251563013 49.85736770259259 4.062588476803151e-05
    vertex 67.93297219327027 56.222673878330085 0.00012569464138297162
    vertex 70.37469995187729 50.56095274201063 3.969843381827528e-05
  endloop
endfacet
facet normal -4.2506790929802075e-06 2.9644554000745945e-07 -0.9999999999909219
  outer loop
    vertex 70.37469995187729 50.56095274201063 3.969843381827528e-05
    vertex 67.93297219327027 56.222673878330085 0.00012569464138297162
    vertex 70.78238614819304 51.193523408621644 3.8153013379941766e-05
  endloop
endfacet
facet normal -4.2506790929802075e-06 2.9644554000745945e-07 -0.9999999999909219
  outer loop
    vertex 70.78238614819304 51.193523408621644 3.8153013379941766e-05
    vertex 67.93297219327027 56.222673878330085 0.00012569464138297162
    vertex 71.31269492524032 51.7275466227316 3.605714974858716e-05
  endloop
endfacet
facet normal -4.2506790929802075e-06 2.9644554000745945e-07 -0.9999999999909219
  outer loop
    vertex 71.31269492524032 51.7275466227316 3.605714974858716e-05
    vertex 67.93297219327027 56.222673878330085 0.00012569464138297162
    vertex 75.92754687087111 55.83167273127572 -1.0640675497937294e-05
  endloop
endfacet
facet normal -4.2506790929802075e-06 2.9644554000745945e-07 -0.9999999999909219
  outer loop
    vertex 71.31269492524032 51.7275466227316 3.605714974858716e-05
    vertex 75.92754687087111 55.83167273127572 -1.0640675497937294e-05
    vertex 71.94244676981026 52.1396467417302 3.350244199139833e-05
  endloop
endfacet
facet normal -4.2506790929802075e-06 2.9644554000745945e-07 -0.9999999999909219
  outer loop
    vertex 71.94244676981026 52.1396467417302 3.350244199139833e-05
    vertex 75.92754687087111 55.83167273127572 -1.0640675497937294e-05
    vertex 72.64411873630436 52.41180668578777 3.060054023484972e-05
  endloop
endfacet
facet normal -4.2506790929802075e-06 2.9644554000745945e-07 -0.9999999999909219
  outer loop
    vertex 72.64411873630436 52.41180668578777 3.060054023484972e-05
    vertex 75.92754687087111 55.83167273127572 -1.0640675497937294e-05
    vertex 73.38704160782885 52.532140381590736 2.7478285904568958e-05
  endloop
endfacet
facet normal -4.2506790929802075e-06 2.9644554000745945e-07 -0.9999999999909219
  outer loop
    vertex 73.38704160782885 52.532140381590736 2.7478285904568958e-05
    vertex 75.92754687087111 55.83167273127572 -1.0640675497937294e-05
    vertex 74.13874718416102 52.49537752933428 2.427212854355863e-05
  endloop
endfacet
facet normal -4.2506790929802075e-06 2.9644554000745945e-07 -0.9999999999909219
  outer loop
    vertex 74.13874718416102 52.49537752933428 2.427212854355863e-05
    vertex 75.92754687087111 55.83167273127572 -1.0640675497937294e-05
    vertex 74.86638273028238 52.303124822226174 2.112219088274618e-05
  endloop
endfacet
facet normal -4.2506790929802075e-06 2.9644554000745945e-07 -0.9999999999909219
  outer loop
    vertex 74.86638273028238 52.303124822226174 2.112219088274618e-05
    vertex 75.92754687087111 55.83167273127572 -1.0640675497937294e-05
    vertex 75.53814925723557 51.96379560603914 1.8166134318502544e-05
  endloop
endfacet
facet normal -4.2506790929802075e-06 2.9644554000745945e-07 -0.9999999999909219
  outer loop
    vertex 75.53814925723557 51.96379560603914 1.8166134318502544e-05
    vertex 75.92754687087111 55.83167273127572 -1.0640675497937294e-05
    vertex 76.12468373128713 51.492211886491425 1.553316560191549e-05
  endloop
endfacet
facet normal -4.2506790929802075e-06 2.9644554000745945e-07 -0.9999999999909219
  outer loop
    vertex 76.12468373128713 51.492211886491425 1.553316560191549e-05
    vertex 75.92754687087111 55.83167273127572 -1.0640675497937294e-05
    vertex 77.66178133389694 91.28931983238677 9.473741299950552e-14
  endloop
endfacet
facet normal -4.2506790929802075e-06 2.9644554000745945e-07 -0.9999999999909219
  outer loop
    vertex 76.12468373128713 51.492211886491425 1.553316560191549e-05
    vertex 77.66178133389694 91.28931983238677 9.473741299950552e-14
    vertex 76.6003526295964 50.908990409368926 1.3338356354942095e-05
  endloop
endfacet
facet normal -4.2506790929802075e-06 2.9644554000745945e-07 -0.9999999999909219
  outer loop
    vertex 76.6003526295964 50.908990409368926 1.3338356354942095e-05
    vertex 77.66178133389694 91.28931983238677 9.473741299950552e-14
    vertex 76.94436801440176 50.23965708589094 1.1677636472547853e-05
  endloop
endfacet
facet normal -4.2506790929802075e-06 2.9644554000745945e-07 -0.9999999999909219
  outer loop
    vertex 76.94436801440176 50.23965708589094 1.1677636472547853e-05
    vertex 77.66178133389694 91.28931983238677 9.473741299950552e-14
    vertex 77.1416953156547 49.51335110279074 1.0623551269257468e-05
  endloop
endfacet
facet normal -4.2506790929802075e-06 2.9644554000745945e-07 -0.9999999999909219
  outer loop
    vertex 77.1416953156547 49.51335110279074 1.0623551269257468e-05
    vertex 77.66178133389694 91.28931983238677 9.473741299950552e-14
    vertex 77.18370902108752 48.76190179148032 1.0222200693072304e-05
  endloop
endfacet
facet normal -4.2506790929802075e-06 2.9644554000745945e-07 -0.9999999999909219
  outer loop
    vertex 77.66178133389694 91.28931983238677 9.473741299950552e-14
    vertex 81.16850818530621 81.10585937979 2.8723201691808418e-06
    vertex 77.99327314859049 16.183460452596865 -2.8767302535571705e-06
  endloop
endfacet
facet normal -4.2506790929802075e-06 2.9644554000745945e-07 -0.9999999999909219
  outer loop
    vertex 81.16850818530621 81.10585937979 2.8723201691808418e-06
    vertex 77.66178133389694 91.28931983238677 9.473741299950552e-14
    vertex 85.65223043262839 90.89852167402175 1.084234510395716e-13
  endloop
endfacet
facet normal -4.2506790929802075e-06 2.9644554000745945e-07 -0.9999999999909219
  outer loop
    vertex 81.16850818530621 81.10585937979 2.8723201691808418e-06
    vertex 85.65223043262839 90.89852167402175 1.084234510395716e-13
    vertex 83.16612045998892 81.00815984019872 -5.647851155543594e-06
  endloop
endfacet
facet normal -4.2506790929802075e-06 2.9644554000745945e-07 -0.9999999999909219
  outer loop
    vertex 73.50955090126853 6.390798158365057 -2.414460630933887e-14
    vertex 77.99327314859049 16.183460452596865 -2.8767302535571705e-06
    vertex 81.49999999999999 6.000000000000027 -2.65929753796604e-15
  endloop
endfacet
facet normal -4.2506790929802075e-06 2.9644554000745945e-07 -0.9999999999909219
  outer loop
    vertex 77.99327314859049 16.183460452596865 -2.8767302535571705e-06
    vertex 73.50955090126853 6.390798158365057 -2.414460630933887e-14
    vertex 75.24378377726445 41.848412804008355 1.0640724970108066e-05
  endloop
endfacet
facet normal -4.2506790929802075e-06 2.9644554000745945e-07 -0.9999999999909219
  outer loop
    vertex 77.99327314859049 16.183460452596865 -2.8767302535571705e-06
    vertex 75.24378377726445 41.848412804008355 1.0640724970108066e-05
    vertex 75.86331911903434 46.147979207736135 1.5059868752479713e-05
  endloop
endfacet
facet normal -4.2506790929802075e-06 2.9644554000745945e-07 -0.9999999999909219
  outer loop
    vertex 77.99327314859049 16.183460452596865 -2.8767302535571705e-06
    vertex 75.86331911903434 46.147979207736135 1.5059868752479713e-05
    vertex 76.39362838455688 46.68201240990833 1.2964006005690098e-05
  endloop
endfacet
facet normal -4.2506790929802075e-06 2.9644554000745945e-07 -0.9999999999909219
  outer loop
    vertex 77.99327314859049 16.183460452596865 -2.8767302535571705e-06
    vertex 76.39362838455688 46.68201240990833 1.2964006005690098e-05
    vertex 76.80131311544712 47.31455311233221 1.1418582913660783e-05
  endloop
endfacet
facet normal -4.2506790929802075e-06 2.9644554000745945e-07 -0.9999999999909219
  outer loop
    vertex 77.99327314859049 16.183460452596865 -2.8767302535571705e-06
    vertex 76.80131311544712 47.31455311233221 1.1418582913660783e-05
    vertex 77.06857055169415 48.01813815175017 1.0491131963904949e-05
  endloop
endfacet
facet normal -4.2506790929802075e-06 2.9644554000745945e-07 -0.9999999999909219
  outer loop
    vertex 77.99327314859049 16.183460452596865 -2.8767302535571705e-06
    vertex 77.06857055169415 48.01813815175017 1.0491131963904949e-05
    vertex 77.18370902108752 48.76190179148032 1.0222200693072304e-05
  endloop
endfacet
facet normal -4.2506790929802075e-06 2.9644554000745945e-07 -0.9999999999909219
  outer loop
    vertex 77.99327314859049 16.183460452596865 -2.8767302535571705e-06
    vertex 77.18370902108752 48.76190179148032 1.0222200693072304e-05
    vertex 77.66178133389694 91.28931983238677 9.473741299950552e-14
  endloop
endfacet
facet normal -4.2506790929802075e-06 2.9644554000745945e-07 -0.9999999999909219
  outer loop
    vertex 81.49999999999999 6.000000000000027 -2.65929753796604e-15
    vertex 77.99327314859049 16.183460452596865 -2.8767302535571705e-06
    vertex 79.99088542327335 16.085760913005625 -1.1396901578282223e-05
  endloop
endfacet
facet normal -4.2506790929802075e-06 2.9644554000745945e-07 -0.9999999999909219
  outer loop
    vertex 81.49999999999999 6.000000000000027 -2.65929753796604e-15
    vertex 79.99088542327335 16.085760913005625 -1.1396901578282223e-05
    vertex 83.16612045998892 81.00815984019872 -5.647851155543594e-06
  endloop
endfacet
facet normal -4.2506790929802075e-06 2.9644554000745945e-07 -0.9999999999909219
  outer loop
    vertex 81.49999999999999 6.000000000000027 -2.65929753796604e-15
    vertex 83.16612045998892 81.00815984019872 -5.647851155543594e-06
    vertex 85.65223043262839 90.89852167402175 1.084234510395716e-13
  endloop
endfacet
endsolid single slide
